# xmcd CD database file
#
# Track frame offsets:
#	150
#	20168
#	32721
#	47729
#	63638
#	80350
#	96576
#	110027
#	127774
#	142542
#
# Disc length: 2115 seconds
#
# Revision: 2
# Processed by: cddbd v1.5.2PL0 Copyright (c) Steve Scherf et al.
# Submitted via: CDex 1.70beta2
#
DISCID=8408410a
DTITLE=Bobby Valentin Canta Frankie Hernandez - Algo Nuevo
DYEAR=1970
DGENRE=Salsa
TTITLE0=Huracan
TTITLE1=Por El Ojo
TTITLE2=Ven Rumbero
TTITLE3=Fire And Rain
TTITLE4=Descarga
TTITLE5=Total Para Nada
TTITLE6=Yo Soy Abacua
TTITLE7=Pan De Negro
TTITLE8=El Mensajero
TTITLE9=Casino
EXTD=YEAR: 1970
EXTT0=
EXTT1=
EXTT2=
EXTT3=
EXTT4=
EXTT5=
EXTT6=
EXTT7=
EXTT8=
EXTT9=
PLAYORDER=
